<svg width="1920" height="151" viewBox="0 0 1920 151" fill="none" xmlns="http://www.w3.org/2000/svg">
<g clip-path="url(#clip0_183_95)">
<path d="M0 144.517L64 149.383C128 154.616 256 163.797 384 149.383C455.513 141.022 527.026 125.296 598.539 109.57C655.026 97.1484 711.513 84.7268 768 75.9348C896 56.3792 1024 56.3792 1152 80.8925C1198.23 89.6128 1244.45 101.65 1290.68 113.688C1372.45 134.981 1454.23 156.274 1536 159.207C1664 163.797 1792 125.237 1856 105.314L1920 85.7584V27H1856H1536H1152H768H384H64H0V144.517Z" fill="#F8EB09" stroke="white"/>
<path d="M0 135.935L64 140.801C128 146.034 256 155.215 384 140.801C455.513 132.44 527.026 116.714 598.539 100.988C655.026 88.5664 711.513 76.1448 768 67.3528C896 47.7972 1024 47.7972 1152 72.3105C1198.23 81.0308 1244.45 93.068 1290.68 105.106C1372.45 126.399 1454.23 147.692 1536 150.625C1664 155.215 1792 116.655 1856 96.732L1920 77.1764V18.418H1856H1536H1152H768H384H64H0V135.935Z" fill="#1F6D31"/>
<path d="M0 135.935L64 140.801C128 146.034 256 155.215 384 140.801C455.513 132.44 527.026 116.714 598.539 100.988C655.026 88.5664 711.513 76.1448 768 67.3528C896 47.7972 1024 47.7972 1152 72.3105C1198.23 81.0308 1244.45 93.068 1290.68 105.106C1372.45 126.399 1454.23 147.692 1536 150.625C1664 155.215 1792 116.655 1856 96.732L1920 77.1764V18.418H1856H1536H1152H768H384H64H0V135.935Z" fill="#F30706" stroke="white"/>
<path d="M0 117.887L64 122.768C128 128.018 256 137.228 384 122.768C512 107.756 640 69.0743 768 49.0888C896 29.4717 1024 29.4717 1152 54.0622C1280 78.2842 1408 128.018 1536 132.623C1664 137.228 1792 98.546 1856 78.5605L1920 58.9434V0H1856C1792 0 1664 0 1536 0C1408 0 1280 0 1152 0C1024 0 896 0 768 0C640 0 512 0 384 0C256 0 128 0 64 0H0V117.887Z" fill="#653FE4"/>
</g>
<defs>
<clipPath id="clip0_183_95">
<rect width="1920" height="151" fill="white"/>
</clipPath>
</defs>
</svg>
