<svg width="82" height="80" viewBox="0 0 82 80" fill="none" xmlns="http://www.w3.org/2000/svg">
<rect x="3" y="3" width="76" height="74" rx="15" fill="#FAA41B" stroke="black" stroke-width="6"/>
<path d="M61.8146 5C60.9676 27.2922 58.0115 41.2909 50.9986 56.2199C44.7278 69.569 39.5171 74.7532 31.1172 76" stroke="black" stroke-width="3" stroke-linecap="round"/>
<path d="M69.8237 2.79688C70.9619 15.971 71.1739 24.0799 69.9947 37.2336C68.4859 54.0637 66.2788 63.7763 61.1855 76" stroke="black" stroke-width="3" stroke-linecap="round"/>
<path d="M77.5 9C79.0068 25.3489 77.6401 44.9207 75.4996 60.7737C74.3393 69.3663 73.8183 74.3394 70.2266 78" stroke="black" stroke-width="3" stroke-linecap="round"/>
<path fill-rule="evenodd" clip-rule="evenodd" d="M30.1298 42.5333C30.205 42.5583 30.2823 42.5765 30.3608 42.5875C30.8559 43.7542 31.3482 44.922 31.8378 46.091C32.718 48.1945 33.6053 50.361 33.7995 50.984C34.0428 51.7505 34.2983 52.272 34.5783 52.629C34.7235 52.811 34.8898 52.972 35.0858 53.0945C35.1879 53.1584 35.2971 53.2101 35.4113 53.2485C35.9713 53.4585 36.4823 53.371 36.8025 53.2643C36.9905 53.2001 37.1693 53.1119 37.3345 53.0018L37.3433 52.9983L42.2888 49.9148L48.0025 54.2933C48.0865 54.358 48.1775 54.4123 48.2755 54.456C48.9615 54.7535 49.6265 54.8585 50.253 54.7745C50.876 54.687 51.3713 54.4263 51.7405 54.1305C52.1645 53.7888 52.5026 53.3524 52.7275 52.8565L52.7433 52.818L52.7485 52.804L52.752 52.797V52.7935L52.7538 52.7918C52.7842 52.7165 52.8077 52.6386 52.8238 52.559L58.0388 26.2653C58.0553 26.1811 58.0635 26.0955 58.0633 26.0098C58.0633 25.2398 57.7728 24.5065 57.092 24.0638C56.5075 23.684 55.8583 23.6665 55.447 23.698C55.006 23.733 54.5965 23.8415 54.3218 23.929C54.168 23.9778 54.0162 24.0326 53.8668 24.0935L53.8475 24.1023L24.598 35.5753L24.5945 35.577C24.4956 35.6134 24.3981 35.6537 24.3023 35.6978C24.0704 35.802 23.8479 35.9262 23.6373 36.0688C23.24 36.34 22.3248 37.0855 22.4805 38.3175C22.603 39.2975 23.275 39.9013 23.6863 40.1918C23.9103 40.351 24.1238 40.4648 24.2813 40.54C24.3513 40.575 24.5018 40.6345 24.5665 40.6625L24.584 40.6678L30.1298 42.5333ZM54.8713 26.5173H54.8678C54.8527 26.524 54.8376 26.5304 54.8223 26.5365L25.5378 38.0253C25.5227 38.0314 25.5076 38.0372 25.4923 38.0428L25.4748 38.048C25.4213 38.069 25.3687 38.0924 25.3173 38.118C25.366 38.1459 25.4162 38.171 25.4678 38.1933L30.9663 40.0448C31.0646 40.0779 31.1585 40.1225 31.2463 40.1778L49.406 29.5465L49.4235 29.5378C49.4941 29.4949 49.5665 29.4552 49.6405 29.4188C49.7665 29.354 49.9678 29.2595 50.1953 29.1895C50.3528 29.1405 50.82 29.0023 51.324 29.165C51.5914 29.2493 51.8296 29.407 52.0116 29.6202C52.1935 29.8334 52.3119 30.0935 52.353 30.3708C52.4182 30.6136 52.42 30.8691 52.3583 31.1128C52.2358 31.594 51.8998 31.9685 51.5935 32.2555C51.331 32.5005 47.9255 35.7835 44.5673 39.0245L39.9945 43.4345L39.1808 44.222L49.4568 52.1005C49.5955 52.1587 49.7461 52.1827 49.896 52.1705C49.9716 52.1603 50.0426 52.1287 50.1008 52.0795C50.1717 52.0196 50.2326 51.9487 50.281 51.8695L50.2845 51.8678L55.342 26.365C55.1827 26.4033 55.0265 26.4536 54.8748 26.5155L54.8713 26.5173ZM40.0645 48.2068L38.0135 46.6353L37.5165 49.794L40.0645 48.2068ZM36.1323 43.5168L38.171 41.548L42.7438 37.1345L44.4465 35.493L33.0365 42.1728L33.0978 42.3163C33.8174 44.0163 34.5291 45.7196 35.2328 47.4263L35.728 44.2763C35.7729 43.9841 35.9154 43.7175 36.1323 43.5168Z" fill="white"/>
</svg>
