<svg width="1920" height="151" viewBox="0 0 1920 151" fill="none" xmlns="http://www.w3.org/2000/svg">
<path d="M0 15.0657L64 10.1998C128 4.96664 256 -4.21437 384 10.1998C455.513 18.5607 527.026 34.2866 598.539 50.0126C655.026 62.4342 711.513 74.8558 768 83.6478C896 103.203 1024 103.203 1152 78.6901C1198.23 69.9698 1244.45 57.9326 1290.68 45.8954C1372.45 24.6021 1454.23 3.30879 1536 0.376138C1664 -4.21436 1792 34.3458 1856 54.2686L1920 73.8242V132.583H1856H1536H1152H768H384H64H0V15.0657Z" fill="#0153FF"/>
<path d="M0 15.0657L64 10.1998C128 4.96664 256 -4.21437 384 10.1998C455.513 18.5607 527.026 34.2866 598.539 50.0126C655.026 62.4342 711.513 74.8558 768 83.6478C896 103.203 1024 103.203 1152 78.6901C1198.23 69.9698 1244.45 57.9326 1290.68 45.8954C1372.45 24.6021 1454.23 3.30879 1536 0.376138C1664 -4.21436 1792 34.3458 1856 54.2686L1920 73.8242V132.583H1856H1536H1152H768H384H64H0V15.0657Z" stroke="white"/>
<path d="M0 33.1132L64 28.2319C128 22.9823 256 13.7724 384 28.2319C512 43.2441 640 81.9257 768 101.911C896 121.528 1024 121.528 1152 96.9378C1280 72.7158 1408 22.9823 1536 18.3773C1664 13.7724 1792 52.454 1856 72.4395L1920 92.0566V151H1856C1792 151 1664 151 1536 151C1408 151 1280 151 1152 151C1024 151 896 151 768 151C640 151 512 151 384 151C256 151 128 151 64 151H0V33.1132Z" fill="#7FA7FF"/>
</svg>
