<svg width="265" height="80" viewBox="0 0 265 80" fill="none" xmlns="http://www.w3.org/2000/svg">
<rect x="3" y="3" width="259" height="74" rx="15" fill="#FAA41B" stroke="black" stroke-width="6"/>
<path d="M217 5C214.986 27.2922 207.956 41.2909 191.279 56.2199C176.367 69.569 163.975 74.7532 144 76" stroke="black" stroke-width="3" stroke-linecap="round"/>
<path d="M236.042 2.79688C238.749 15.971 239.253 24.0799 236.449 37.2336C232.861 54.0637 227.612 63.7763 215.5 76" stroke="black" stroke-width="3" stroke-linecap="round"/>
<path d="M252.5 5C256.083 21.3489 254.63 44.9207 249.539 60.7737C246.78 69.3663 245.541 74.3394 237 78" stroke="black" stroke-width="3" stroke-linecap="round"/>
<path d="M43.0992 36.506C43.0992 38.3087 42.3192 39.678 40.7592 40.614C41.6085 40.926 42.3192 41.4633 42.8912 42.226C43.4632 42.9887 43.7492 44.072 43.7492 45.476C43.7492 46.8627 43.2292 47.9633 42.1892 48.778C41.1665 49.5927 39.6932 50 37.7692 50H31.6332C31.3385 50 31.0959 49.9047 30.9052 49.714C30.7145 49.506 30.6192 49.2373 30.6192 48.908V32.268C30.6192 32.0773 30.6452 31.956 30.6972 31.904C30.7665 31.8347 30.8965 31.8 31.0872 31.8H37.0152C41.0712 31.8 43.0992 33.3687 43.0992 36.506ZM35.6112 36.012V39.418H35.7412C37.4052 39.418 38.2372 38.8633 38.2372 37.754C38.2372 37.1473 38.0725 36.7053 37.7432 36.428C37.4312 36.1507 36.9025 36.012 36.1572 36.012H35.6112ZM35.6112 42.486V45.866H36.0792C36.8245 45.866 37.3705 45.7273 37.7172 45.45C38.0639 45.1727 38.2372 44.7307 38.2372 44.124C38.2372 43.5173 38.0725 43.0927 37.7432 42.85C37.4312 42.6073 36.9025 42.486 36.1572 42.486H35.6112ZM54.2727 32.32C54.2727 31.9733 55.2087 31.8 57.0807 31.8C58.97 31.8 59.9147 31.9733 59.9147 32.32V44.254C59.9147 46.022 59.282 47.4693 58.0167 48.596C56.7514 49.7053 55.0007 50.26 52.7647 50.26C50.546 50.26 48.7347 49.688 47.3307 48.544C45.944 47.3827 45.2507 45.8227 45.2507 43.864V32.346C45.2507 31.9993 46.1867 31.826 48.0587 31.826C49.948 31.826 50.8927 31.9993 50.8927 32.346V44.072C50.8927 44.4187 51.0747 44.696 51.4387 44.904C51.82 45.112 52.2187 45.216 52.6347 45.216C53.0507 45.216 53.4234 45.1207 53.7527 44.93C54.0994 44.7393 54.2727 44.4533 54.2727 44.072V32.32ZM71.1449 32.658C71.3702 32.0513 72.4795 31.748 74.4729 31.748C74.9755 31.748 75.5649 31.7827 76.2409 31.852C76.9342 31.9213 77.2549 32.008 77.2029 32.112L71.7949 42.98V49.324C71.7949 49.6187 71.3182 49.8267 70.3649 49.948C69.8795 50.0173 69.4029 50.052 68.9349 50.052C68.4669 50.052 67.9989 50.026 67.5309 49.974C66.5775 49.8527 66.1009 49.636 66.1009 49.324V43.136L60.5109 32.164C60.4415 32.06 60.7969 31.9647 61.5769 31.878C62.3569 31.774 63.0155 31.722 63.5529 31.722C65.6849 31.722 66.8549 32.034 67.0629 32.658L68.9609 37.962L71.1449 32.658ZM90.7154 50.26C88.2887 50.26 86.304 49.4627 84.7614 47.868C83.236 46.2733 82.4734 43.9507 82.4734 40.9C82.4734 37.832 83.2447 35.5093 84.7874 33.932C86.3474 32.3547 88.3494 31.566 90.7934 31.566C93.2547 31.566 95.2394 32.346 96.7474 33.906C98.2554 35.4487 99.0094 37.7973 99.0094 40.952C99.0094 44.0893 98.238 46.4293 96.6954 47.972C95.1527 49.4973 93.1594 50.26 90.7154 50.26ZM90.7414 36.558C89.9094 36.558 89.2074 36.9393 88.6354 37.702C88.0807 38.4647 87.8034 39.5393 87.8034 40.926C87.8034 42.2953 88.072 43.3527 88.6094 44.098C89.1467 44.826 89.8487 45.19 90.7154 45.19C91.5994 45.19 92.31 44.8173 92.8474 44.072C93.402 43.3267 93.6794 42.2607 93.6794 40.874C93.6794 39.4873 93.3934 38.4213 92.8214 37.676C92.2667 36.9307 91.5734 36.558 90.7414 36.558ZM115.345 49.428C115.345 49.792 114.53 49.974 112.901 49.974C111.272 49.974 110.388 49.844 110.249 49.584L105.907 41.472V49.558C105.907 49.87 105.101 50.026 103.489 50.026C101.894 50.026 101.097 49.87 101.097 49.558V32.164C101.097 31.904 101.782 31.774 103.151 31.774C103.688 31.774 104.312 31.826 105.023 31.93C105.751 32.0167 106.193 32.19 106.349 32.45L110.509 40.458V32.294C110.509 31.9647 111.315 31.8 112.927 31.8C114.539 31.8 115.345 31.9647 115.345 32.294V49.428ZM127.823 49.636C127.823 49.9133 126.999 50.052 125.353 50.052C123.689 50.052 122.857 49.922 122.857 49.662V32.71C122.857 32.1033 123.177 31.8 123.819 31.8H128.785C133.343 31.8 135.623 33.5767 135.623 37.13C135.623 38.2047 135.415 39.184 134.999 40.068C134.583 40.9347 133.993 41.628 133.231 42.148L136.507 47.608C136.368 48.024 135.917 48.5007 135.155 49.038C134.115 49.7833 133.257 50.156 132.581 50.156C131.905 50.156 131.402 49.9133 131.073 49.428L128.629 43.734H127.823V49.636ZM127.823 36.402V40.302H127.953C129.599 40.302 130.423 39.6173 130.423 38.248C130.423 37.624 130.258 37.1647 129.929 36.87C129.617 36.558 129.097 36.402 128.369 36.402H127.823ZM150.413 50.052C148.905 50.052 148.09 49.8093 147.969 49.324L147.111 45.97H142.977L142.223 49.194C142.119 49.7313 141.287 50 139.727 50C138.895 50 138.279 49.9567 137.881 49.87C137.482 49.766 137.283 49.688 137.283 49.636L141.885 32.034C141.885 31.8953 143.072 31.826 145.447 31.826C147.821 31.826 149.009 31.8953 149.009 32.034L153.507 49.662C153.507 49.7833 153.108 49.8787 152.311 49.948C151.513 50.0173 150.881 50.052 150.413 50.052ZM143.627 42.668H146.357L145.187 37.286H145.031L143.627 42.668ZM163.237 32.658C163.462 32.0513 164.571 31.748 166.565 31.748C167.067 31.748 167.657 31.7827 168.333 31.852C169.026 31.9213 169.347 32.008 169.295 32.112L163.887 42.98V49.324C163.887 49.6187 163.41 49.8267 162.457 49.948C161.971 50.0173 161.495 50.052 161.027 50.052C160.559 50.052 160.091 50.026 159.623 49.974C158.669 49.8527 158.193 49.636 158.193 49.324V43.136L152.603 32.164C152.533 32.06 152.889 31.9647 153.669 31.878C154.449 31.774 155.107 31.722 155.645 31.722C157.777 31.722 158.947 32.034 159.155 32.658L161.053 37.962L163.237 32.658ZM170.185 48.804V33.204C170.185 32.7707 170.289 32.4327 170.497 32.19C170.722 31.93 171.008 31.8 171.355 31.8H175.697C178.453 31.8 180.541 32.4933 181.963 33.88C183.401 35.2667 184.121 37.4507 184.121 40.432C184.121 46.8107 181.399 50 175.957 50H171.511C170.627 50 170.185 49.6013 170.185 48.804ZM175.177 36.74V44.514C175.177 44.878 175.203 45.112 175.255 45.216C175.307 45.3027 175.463 45.346 175.723 45.346C176.676 45.346 177.395 44.9907 177.881 44.28C178.383 43.5693 178.635 42.3907 178.635 40.744C178.635 39.08 178.375 37.9967 177.855 37.494C177.352 36.9913 176.546 36.74 175.437 36.74H175.177ZM187.922 45.528V36.272H186.076C185.782 36.272 185.574 35.8993 185.452 35.154C185.4 34.79 185.374 34.4173 185.374 34.036C185.374 33.6547 185.4 33.282 185.452 32.918C185.574 32.1727 185.782 31.8 186.076 31.8H194.812C195.107 31.8 195.306 32.1727 195.41 32.918C195.48 33.282 195.514 33.6547 195.514 34.036C195.514 34.4173 195.48 34.79 195.41 35.154C195.306 35.8993 195.107 36.272 194.812 36.272H193.07V45.528H194.89C195.185 45.528 195.393 45.9007 195.514 46.646C195.584 47.01 195.618 47.3827 195.618 47.764C195.618 48.1453 195.584 48.518 195.514 48.882C195.393 49.6273 195.185 50 194.89 50H186.128C185.834 50 185.634 49.6273 185.53 48.882C185.461 48.518 185.426 48.1453 185.426 47.764C185.426 47.3827 185.461 47.01 185.53 46.646C185.634 45.9007 185.834 45.528 186.128 45.528H187.922ZM205.855 32.32C205.855 31.9733 206.791 31.8 208.663 31.8C210.552 31.8 211.497 31.9733 211.497 32.32V44.254C211.497 46.022 210.864 47.4693 209.599 48.596C208.333 49.7053 206.583 50.26 204.347 50.26C202.128 50.26 200.317 49.688 198.913 48.544C197.526 47.3827 196.833 45.8227 196.833 43.864V32.346C196.833 31.9993 197.769 31.826 199.641 31.826C201.53 31.826 202.475 31.9993 202.475 32.346V44.072C202.475 44.4187 202.657 44.696 203.021 44.904C203.402 45.112 203.801 45.216 204.217 45.216C204.633 45.216 205.005 45.1207 205.335 44.93C205.681 44.7393 205.855 44.4533 205.855 44.072V32.32ZM231.879 50.026C230.336 50.026 229.565 49.8527 229.565 49.506L229.019 39.08L225.847 49.636C225.778 49.844 225.188 49.948 224.079 49.948C222.97 49.948 222.398 49.8527 222.363 49.662L219.087 38.976L218.723 49.35C218.706 49.61 218.376 49.792 217.735 49.896C217.094 49.9827 216.556 50.026 216.123 50.026C215.707 50.026 215.3 50 214.901 49.948C214.069 49.8267 213.662 49.61 213.679 49.298L214.277 32.398C214.277 31.982 215.334 31.774 217.449 31.774C218.073 31.774 218.836 31.826 219.737 31.93C220.638 32.0167 221.141 32.1987 221.245 32.476L224.157 40.666L226.705 32.45C226.861 31.9993 228.057 31.774 230.293 31.774C230.934 31.774 231.697 31.826 232.581 31.93C233.482 32.0167 233.933 32.1813 233.933 32.424L234.687 49.48C234.687 49.6707 234.349 49.8093 233.673 49.896C232.997 49.9827 232.399 50.026 231.879 50.026Z" fill="white"/>
</svg>
