<svg width="1920" height="151" viewBox="0 0 1920 151" fill="none" xmlns="http://www.w3.org/2000/svg">
<path d="M1920 135.934L1856 140.8C1792 146.033 1664 155.214 1536 140.8C1464.49 132.439 1392.97 116.713 1321.46 100.987C1264.97 88.5658 1208.49 76.1442 1152 67.3522C1024 47.7966 896 47.7966 768 72.3099C721.773 81.0302 675.546 93.0674 629.32 105.105C547.546 126.398 465.773 147.691 384 150.624C256 155.214 128 116.654 64 96.7314L0 77.1758V18.4174H64H384H768H1152H1536H1856H1920V135.934Z" fill="#0153FF"/>
<path d="M1920 135.934L1856 140.8C1792 146.033 1664 155.214 1536 140.8C1464.49 132.439 1392.97 116.713 1321.46 100.987C1264.97 88.5658 1208.49 76.1442 1152 67.3522C1024 47.7966 896 47.7966 768 72.3099C721.773 81.0302 675.546 93.0674 629.32 105.105C547.546 126.398 465.773 147.691 384 150.624C256 155.214 128 116.654 64 96.7314L0 77.1758V18.4174H64H384H768H1152H1536H1856H1920V135.934Z" stroke="white"/>
<path d="M1920 117.887L1856 122.768C1792 128.018 1664 137.228 1536 122.768C1408 107.756 1280 69.0743 1152 49.0888C1024 29.4717 896 29.4717 768 54.0622C640 78.2842 512 128.018 384 132.623C256 137.228 128 98.546 63.9999 78.5605L-5.72205e-05 58.9434V1.30397e-06H63.9999C128 1.30397e-06 256 1.30397e-06 384 1.30397e-06C512 1.30397e-06 640 1.30397e-06 768 1.30397e-06C896 1.30397e-06 1024 1.30397e-06 1152 1.30397e-06C1280 1.30397e-06 1408 1.30397e-06 1536 1.30397e-06C1664 1.30397e-06 1792 1.30397e-06 1856 1.30397e-06H1920V117.887Z" fill="#D7EAFF"/>
</svg>
