<svg width="1920" height="151" viewBox="0 0 1920 151" fill="none" xmlns="http://www.w3.org/2000/svg">
<path d="M0 135.934L64 140.8C128 146.033 256 155.214 384 140.8C455.513 132.439 527.026 116.713 598.539 100.987C655.026 88.5658 711.513 76.1442 768 67.3522C896 47.7966 1024 47.7966 1152 72.3099C1198.23 81.0302 1244.45 93.0674 1290.68 105.105C1372.45 126.398 1454.23 147.691 1536 150.624C1664 155.214 1792 116.654 1856 96.7314L1920 77.1758V18.4174H1856H1536H1152H768H384H64H0V135.934Z" fill="#0153FF"/>
<path d="M0 135.934L64 140.8C128 146.033 256 155.214 384 140.8C455.513 132.439 527.026 116.713 598.539 100.987C655.026 88.5658 711.513 76.1442 768 67.3522C896 47.7966 1024 47.7966 1152 72.3099C1198.23 81.0302 1244.45 93.0674 1290.68 105.105C1372.45 126.398 1454.23 147.691 1536 150.624C1664 155.214 1792 116.654 1856 96.7314L1920 77.1758V18.4174H1856H1536H1152H768H384H64H0V135.934Z" stroke="white"/>
<path d="M0 117.887L64 122.768C128 128.018 256 137.228 384 122.768C512 107.756 640 69.0743 768 49.0888C896 29.4717 1024 29.4717 1152 54.0622C1280 78.2842 1408 128.018 1536 132.623C1664 137.228 1792 98.546 1856 78.5605L1920 58.9434V1.30397e-06H1856C1792 1.30397e-06 1664 1.30397e-06 1536 1.30397e-06C1408 1.30397e-06 1280 1.30397e-06 1152 1.30397e-06C1024 1.30397e-06 896 1.30397e-06 768 1.30397e-06C640 1.30397e-06 512 1.30397e-06 384 1.30397e-06C256 1.30397e-06 128 1.30397e-06 64 1.30397e-06H0V117.887Z" fill="#7FA7FF"/>
</svg>
