<svg width="195" height="80" viewBox="0 0 195 80" fill="none" xmlns="http://www.w3.org/2000/svg">
<rect x="3" y="3" width="189" height="74" rx="15" fill="#FAA41B" stroke="black" stroke-width="6"/>
<path d="M147 5C144.986 27.2922 137.956 41.2909 121.279 56.2199C106.367 69.569 93.9755 74.7532 74 76" stroke="black" stroke-width="3" stroke-linecap="round"/>
<path d="M166.042 2.79688C168.749 15.971 169.253 24.0799 166.449 37.2336C162.861 54.0637 157.612 63.7763 145.5 76" stroke="black" stroke-width="3" stroke-linecap="round"/>
<path d="M182.5 5C186.083 21.3489 184.63 44.9207 179.539 60.7737C176.78 69.3663 175.541 74.3394 167 78" stroke="black" stroke-width="3" stroke-linecap="round"/>
<path d="M67.8708 31.566C69.1361 31.566 70.2454 31.748 71.1988 32.112C72.1694 32.4587 72.6548 32.9353 72.6548 33.542C72.6548 34.1487 72.4208 34.9027 71.9528 35.804C71.5021 36.688 71.1208 37.13 70.8088 37.13C70.7221 37.13 70.6181 37.0867 70.4968 37C70.3928 36.896 70.1328 36.792 69.7168 36.688C69.3181 36.5667 68.9714 36.506 68.6768 36.506C67.6714 36.506 66.8568 36.8613 66.2328 37.572C65.6261 38.2827 65.3228 39.3747 65.3228 40.848C65.3228 42.304 65.6348 43.3873 66.2588 44.098C66.9001 44.8087 67.7061 45.164 68.6768 45.164C69.0754 45.164 69.5174 45.112 70.0028 45.008C70.5054 44.8867 70.8608 44.722 71.0688 44.514C71.1034 44.4793 71.1728 44.462 71.2768 44.462C71.3808 44.462 71.5714 44.6613 71.8488 45.06C72.1434 45.4413 72.4121 45.9527 72.6548 46.594C72.8974 47.218 73.0188 47.7033 73.0188 48.05C73.0188 48.726 72.4988 49.2633 71.4588 49.662C70.4188 50.0607 69.1881 50.26 67.7668 50.26C65.4788 50.26 63.5981 49.454 62.1248 47.842C60.6514 46.23 59.9148 43.9593 59.9148 41.03C59.9148 38.0833 60.6688 35.7693 62.1768 34.088C63.7021 32.4067 65.6001 31.566 67.8708 31.566ZM89.153 49.558C89.153 49.8527 88.2777 50 86.527 50C84.7763 50 83.901 49.8527 83.901 49.558V43.578H80.261V49.558C80.261 49.8527 79.3857 50 77.635 50C75.8843 50 75.009 49.8527 75.009 49.558V32.32C75.009 31.956 75.8843 31.774 77.635 31.774C79.3857 31.774 80.261 31.956 80.261 32.32V38.43H83.901V32.372C83.901 32.1293 84.3343 31.956 85.201 31.852C85.6517 31.8173 86.0937 31.8 86.527 31.8L87.853 31.852C88.7197 31.956 89.153 32.1293 89.153 32.372V49.558ZM103.961 50.052C102.453 50.052 101.639 49.8093 101.517 49.324L100.659 45.97H96.5254L95.7714 49.194C95.6674 49.7313 94.8354 50 93.2754 50C92.4434 50 91.8281 49.9567 91.4294 49.87C91.0307 49.766 90.8314 49.688 90.8314 49.636L95.4334 32.034C95.4334 31.8953 96.6207 31.826 98.9954 31.826C101.37 31.826 102.557 31.8953 102.557 32.034L107.055 49.662C107.055 49.7833 106.657 49.8787 105.859 49.948C105.062 50.0173 104.429 50.052 103.961 50.052ZM97.1754 42.668H99.9054L98.7354 37.286H98.5794L97.1754 42.668ZM113.745 49.636C113.745 49.9133 112.921 50.052 111.275 50.052C109.611 50.052 108.779 49.922 108.779 49.662V32.71C108.779 32.1033 109.099 31.8 109.741 31.8H114.707C119.265 31.8 121.545 33.5767 121.545 37.13C121.545 38.2047 121.337 39.184 120.921 40.068C120.505 40.9347 119.915 41.628 119.153 42.148L122.429 47.608C122.29 48.024 121.839 48.5007 121.077 49.038C120.037 49.7833 119.179 50.156 118.503 50.156C117.827 50.156 117.324 49.9133 116.995 49.428L114.551 43.734H113.745V49.636ZM113.745 36.402V40.302H113.875C115.521 40.302 116.345 39.6173 116.345 38.248C116.345 37.624 116.18 37.1647 115.851 36.87C115.539 36.558 115.019 36.402 114.291 36.402H113.745ZM131.94 49.584C131.94 49.9307 131.082 50.104 129.366 50.104C127.65 50.104 126.792 49.9307 126.792 49.584V36.532H123.672C123.378 36.532 123.17 36.1333 123.048 35.336C122.996 34.9547 122.97 34.5647 122.97 34.166C122.97 33.7673 122.996 33.3773 123.048 32.996C123.17 32.1987 123.378 31.8 123.672 31.8H134.982C135.277 31.8 135.485 32.1987 135.606 32.996C135.658 33.3773 135.684 33.7673 135.684 34.166C135.684 34.5647 135.658 34.9547 135.606 35.336C135.485 36.1333 135.277 36.532 134.982 36.532H131.94V49.584Z" fill="white"/>
</svg>
