<svg width="82" height="80" viewBox="0 0 82 80" fill="none" xmlns="http://www.w3.org/2000/svg">
<rect x="3" y="3" width="76" height="74" rx="15" fill="#FAA41B" stroke="black" stroke-width="6"/>
<path d="M61.8146 5C60.9676 27.2922 58.0115 41.2909 50.9986 56.2199C44.7278 69.569 39.5171 74.7532 31.1172 76" stroke="black" stroke-width="3" stroke-linecap="round"/>
<path d="M69.8237 2.79688C70.9619 15.971 71.1739 24.0799 69.9947 37.2336C68.4859 54.0637 66.2788 63.7763 61.1855 76" stroke="black" stroke-width="3" stroke-linecap="round"/>
<path d="M77.5 9C79.0068 25.3489 77.6401 44.9207 75.4996 60.7737C74.3393 69.3663 73.8183 74.3394 70.2266 78" stroke="black" stroke-width="3" stroke-linecap="round"/>
<path d="M52.5017 22.9219H58.635L45.235 38.2385L61 59.0769H48.6567L38.99 46.4369L27.9267 59.0769H21.79L36.1233 42.6935L21 22.9235H33.6567L42.395 34.4769L52.5017 22.9219ZM50.35 55.4069H53.7483L31.81 26.4002H28.1633L50.35 55.4069Z" fill="white"/>
</svg>
