<svg width="92" height="153" viewBox="0 0 92 153" fill="none" xmlns="http://www.w3.org/2000/svg">
<path d="M24.4519 147.116C27.8479 137.546 28.6552 130.796 27.5646 120.367C25.6151 101.725 11.3047 90.1815 3.24705 74.0663C-1.06791 65.4364 6.60893 57.1504 14.1413 64.1448C16.6687 66.4917 20.3168 68.2173 21.6311 71.6346C22.4776 73.8355 25.1095 78.1618 27.2728 79.0271C38.7359 83.6124 26.5837 52.524 25.3274 49.9433C21.5352 42.154 18.0336 34.9077 16.5731 26.3067C15.613 20.653 12.0284 8.26045 15.6976 2.86458C18.8014 -1.69985 27.0952 13.2027 27.7591 15.1206C29.2195 19.3395 31.2637 23.5678 33.109 27.6685C36.0658 34.2391 42.0966 42.549 42.836 49.9433C43.1085 52.6679 44.1997 57.8589 45.7981 60.1941C45.6043 59.857 45.4186 59.3438 45.5109 58.6976C45.823 56.5132 47.505 56.0714 49.4017 56.0714C50.5979 56.0714 55.2391 57.7733 55.5784 57.6763C57.1137 57.2377 57.5177 55.2935 59.4692 55.1959C60.9719 55.1208 62.7575 54.9758 64.2354 55.2446C65.8742 55.5425 66.5744 58.7913 67.7858 57.8222C69.7193 56.2754 71.6132 56.0925 73.9625 56.9468C78.4693 58.5856 82.0216 65.8168 83.5436 70.0783C85.5676 75.7454 89.2339 80.9331 89.2339 87.1005C89.2339 94.0521 86.9313 100.898 83.884 106.992C81.9639 110.833 76.9136 114.204 73.3788 116.476C67.8602 120.024 64.9871 125.328 61.872 131.079L61.8523 131.115C59.3722 135.694 58.3854 140.428 56.4052 145.268C54.5739 149.745 50.2893 149.724 45.8027 150.132C39.3133 150.722 30.987 147.116 24.4519 147.116Z" fill="#4CEB75"/>
<path d="M24.4519 147.116C27.8479 137.546 28.6552 130.796 27.5646 120.367C25.6151 101.725 11.3047 90.1815 3.24705 74.0663C-1.06791 65.4364 6.60893 57.1504 14.1413 64.1448C16.6687 66.4917 20.3168 68.2173 21.6311 71.6346C22.4776 73.8355 25.1095 78.1618 27.2728 79.0271C38.7359 83.6124 26.5837 52.524 25.3274 49.9433C21.5352 42.154 18.0336 34.9077 16.5731 26.3067C15.613 20.653 12.0284 8.26045 15.6976 2.86458C18.8014 -1.69985 27.0952 13.2027 27.7591 15.1206C29.2195 19.3395 31.2637 23.5678 33.109 27.6685C36.0658 34.2391 42.0966 42.549 42.836 49.9433C43.1276 52.8598 44.3575 58.6022 46.1432 60.6431C46.1901 60.6966 45.3328 59.9448 45.5109 58.6976C45.823 56.5132 47.505 56.0714 49.4017 56.0714C50.5979 56.0714 55.2391 57.7733 55.5784 57.6763C57.1137 57.2377 57.5177 55.2935 59.4692 55.1959C60.9719 55.1208 62.7575 54.9758 64.2354 55.2446C65.8742 55.5425 66.5744 58.7913 67.7858 57.8222C69.7193 56.2754 71.6132 56.0925 73.9625 56.9468C78.4693 58.5856 82.0216 65.8168 83.5436 70.0783C85.5676 75.7454 89.2339 80.9331 89.2339 87.1005C89.2339 94.0521 86.9313 100.898 83.884 106.992C81.9639 110.833 76.9136 114.204 73.3788 116.476C67.8485 120.031 64.975 125.35 61.8523 131.115C59.3722 135.694 58.3854 140.428 56.4052 145.268C54.5739 149.745 50.2893 149.724 45.8027 150.132C39.3133 150.722 30.987 147.116 24.4519 147.116Z" stroke="black" stroke-width="4" stroke-linecap="round"/>
<path d="M55.7758 66.6914C57.2154 71.4903 57.4539 76.2905 57.4539 81.2355" stroke="black" stroke-width="2" stroke-linecap="round"/>
<path d="M70.3199 64.4551C70.5686 71.4197 71.0192 77.6704 69.7605 84.5931" stroke="black" stroke-width="2" stroke-linecap="round"/>
<path d="M46.8254 69.4883C49.9984 73.3412 53.3412 81.5309 50.1818 86.27" stroke="black" stroke-width="2" stroke-linecap="round"/>
<path d="M33.7175 40.2695C35.4027 43.8506 36.0105 46.2761 36.0105 50.2057" stroke="black" stroke-width="2" stroke-linecap="round"/>
<path d="M22.2527 18.1035C22.2527 19.6028 23.017 20.5104 23.017 21.9251" stroke="black" stroke-width="2" stroke-linecap="round"/>
<path d="M43.5 147.913V148.002C44.1214 149.245 47.9696 148.31 49.1671 148.002C52.3541 147.183 53.3353 147.118 55 144.502C58.6708 138.734 58.9203 131.86 62.5 126.002C64.4896 122.747 67.7717 118.693 71 116.502C73.4248 114.857 76.4382 112.74 78.5 110.678C83.1673 106.011 85.5 100 87 94.0025C87 91.2543 87.9814 83.3777 86 81C83.6487 78.1784 85.0446 84.1671 84.296 86.8093C83.076 91.1153 82.6461 95.0793 80.2524 98.9963C79.0871 100.903 77.3239 102.132 75.9841 103.854C74.3597 105.943 71.7347 109.123 69.5256 110.678C68.2124 111.602 66.9594 113.889 65.3135 114.188C63.7618 114.47 62.7043 114.579 61.5507 115.732C59.7366 117.546 58.1754 119.541 56.3838 121.405C53.9479 123.938 51.6709 126.623 49.1671 129.127C43.4998 134.794 43.4999 140.565 43.5 147.913Z" fill="#148B33"/>
</svg>
